# xmcd
#
# Track frame offsets: 
#        150
#        12788
#        29150
#        43823
#        61788
#        80151
#        96026
#        110988
#        127576
#        147727
#        171802
#        187702
#        204541
#        217516
#        238942
#        251317
#
# Disc length: 3562 seconds
#
# Revision: 0
# Processed by: cddbd v1.5.2PL0 Copyright (c) Steve Scherf et al.
# Submitted via: ExactAudioCopy v1.3
#
DISCID=db0de810
DTITLE=New Leon Grand Orchestra - Sound Of Nature - SUMMER
DYEAR=1992
DGENRE=Instrumental
TTITLE0=Rhythm Of The Rain
TTITLE1=The Green Leaves Of Summer
TTITLE2=Stranger On The Shore
TTITLE3=By The Time I Get To Phoenix
TTITLE4=Rainy Days And Mondays
TTITLE5=Lovin' You
TTITLE6=Yesterday When I Was Young
TTITLE7=Wooden Heart
TTITLE8=And I Love You So
TTITLE9=Everytime You Go Away
TTITLE10=Longer
TTITLE11=Without You
TTITLE12=Summer Holiday
TTITLE13=Over The Rainbow
TTITLE14=Theme From 'a Summer Place'
TTITLE15=Traces
EXTD=
EXTT0=
EXTT1=
EXTT2=
EXTT3=
EXTT4=
EXTT5=
EXTT6=
EXTT7=
EXTT8=
EXTT9=
EXTT10=
EXTT11=
EXTT12=
EXTT13=
EXTT14=
EXTT15=
PLAYORDER=
